
<svg xmlns="http://www.w3.org/2000/svg" viewBox="0 0 300 300">
  <g transform="translate(20, 75)">
    <!-- Safaricom logo - green with more accurate representation -->
    <path fill="#43B02A" d="M130,0c30,0,50,20,50,50s-20,50-50,50H50C20,100,0,80,0,50S20,0,50,0H130z M130,20H50c-16.6,0-30,13.4-30,30s13.4,30,30,30h80c16.6,0,30-13.4,30-30S146.6,20,130,20z"/>
    <path fill="#43B02A" d="M190,0h50c16.6,0,30,13.4,30,30s-13.4,30-30,30h-20v40h-30V0z M240,20h-20v20h20c5.5,0,10-4.5,10-10s-4.5-10-10-10z"/>
    <circle fill="#43B02A" cx="80" cy="50" r="15"/>
    <circle fill="#43B02A" cx="130" cy="50" r="15"/>
  </g>
</svg>
